<svg width="24" height="24" viewBox="0 0 24 24" fill="none" xmlns="http://www.w3.org/2000/svg">
<g clip-path="url(#clip0_100_1149)">
<path d="M11.997 23.1721C18.1655 23.1721 23.166 18.1716 23.166 12.0031C23.166 5.83455 18.1655 0.833984 11.997 0.833984C5.82845 0.833984 0.827881 5.83455 0.827881 12.0031C0.827881 18.1716 5.82845 23.1721 11.997 23.1721Z" fill="#252525"/>
<path d="M11.9972 24C5.38302 24 0 18.617 0 12.0028C0 5.38854 5.38302 0 11.9972 0C18.6115 0 24 5.38302 24 12.0028C24 18.6225 18.617 24 11.9972 24ZM11.9972 1.65631C6.294 1.65631 1.65631 6.294 1.65631 12.0028C1.65631 17.7115 6.294 22.3437 11.9972 22.3437C17.7005 22.3437 22.3437 17.706 22.3437 12.0028C22.3437 6.29952 17.706 1.65631 11.9972 1.65631Z" fill="url(#paint0_linear_100_1149)"/>
<path d="M11.9974 21.4215C6.80212 21.4215 2.573 17.1923 2.573 11.997C2.573 6.80173 6.80212 2.57812 11.9974 2.57812C17.1927 2.57812 21.4219 6.80725 21.4219 12.0026C21.4219 17.1979 17.1927 21.427 11.9974 21.427V21.4215ZM11.9974 2.98668C7.03401 2.9922 2.9926 7.03361 2.9926 12.0026C2.9926 16.9715 7.03401 21.0129 12.0029 21.0129C16.9719 21.0129 21.0133 16.9715 21.0133 12.0026C21.0133 7.03361 16.9664 2.9922 11.9974 2.9922V2.98668Z" fill="url(#paint1_linear_100_1149)"/>
<path d="M5.96817 13.6699C5.99577 13.6865 6.03994 13.692 6.05098 13.7196C6.22214 14.0067 6.38777 14.2993 6.5534 14.5919C6.58652 14.6527 6.59205 14.7244 6.60861 14.7907H5.96265C5.96265 14.4208 5.96265 14.0454 5.96265 13.6754L5.96817 13.6699Z" fill="url(#paint2_linear_100_1149)"/>
<path d="M5.96817 13.543C6.01234 13.5044 6.07859 13.4768 6.10619 13.4326C6.30495 13.0903 6.49819 12.7425 6.69695 12.4002C7.05581 11.7818 7.42572 11.169 7.78459 10.5506C8.03856 10.109 8.29253 9.66727 8.5465 9.22559H9.81082C9.77217 9.31392 9.75009 9.38018 9.71144 9.44091C9.63414 9.58445 9.54581 9.72248 9.46299 9.86603C9.28632 10.1642 9.11517 10.4678 8.93849 10.7715C8.66796 11.2408 8.40295 11.7101 8.13242 12.1738C8.01648 12.3671 7.88949 12.5548 7.77355 12.7535C7.61344 13.0351 7.45885 13.3222 7.29322 13.6259H9.18694C9.32496 13.3995 9.46299 13.1566 9.61206 12.9136C9.8053 12.5989 9.97645 12.2677 10.1642 11.953C10.3519 11.6328 10.5341 11.3181 10.7218 10.9978C10.8433 10.7936 10.9813 10.5948 11.0972 10.385C11.2076 10.1862 11.307 9.97645 11.4174 9.77769C11.5168 9.5955 11.6328 9.4133 11.7432 9.22559C11.9309 9.36361 11.9751 9.58445 12.08 9.76665C12.1849 9.94332 12.2898 10.12 12.4057 10.3132C12.218 10.6335 12.0192 10.9647 11.826 11.296L11.8094 11.2849C11.7487 11.4174 11.6935 11.5499 11.6162 11.6769C11.4119 12.0358 11.1966 12.3891 10.9923 12.7425C10.7328 13.1897 10.4789 13.6369 10.2194 14.0841C10.1034 14.2884 9.98197 14.4871 9.86051 14.6914C9.84394 14.719 9.83842 14.7577 9.82738 14.7908H6.60309C6.58652 14.7246 6.57548 14.6528 6.54788 14.592C6.38225 14.2994 6.21661 14.0123 6.04546 13.7197C6.0289 13.6976 5.99025 13.6866 5.96265 13.67C5.96265 13.6259 5.96265 13.5817 5.96265 13.543H5.96817Z" fill="url(#paint3_linear_100_1149)"/>
<path d="M11.9521 14.7856C12.0847 14.4599 12.2503 14.1617 12.4656 13.8746C12.6257 13.6648 12.7196 13.4053 12.8466 13.1734C13.0895 12.7318 13.3379 12.2956 13.5864 11.8594C13.6195 11.8042 13.6692 11.7656 13.7189 11.7104C13.7465 11.6386 13.7851 11.5558 13.8293 11.4454C13.9121 11.4288 14.006 11.3957 14.0998 11.3901C14.4421 11.3846 14.7844 11.3901 15.1323 11.3901C15.0163 11.6055 14.9059 11.8263 14.7844 12.0416C14.5194 12.5054 14.2489 12.9636 13.9839 13.4219C13.752 13.8194 13.5256 14.2169 13.2993 14.62C13.2717 14.6697 13.2606 14.7249 13.2441 14.7801H11.9577L11.9521 14.7856Z" fill="url(#paint4_linear_100_1149)"/>
<path d="M15.1327 11.3953C14.967 11.1082 14.7959 10.8211 14.6302 10.5285C14.5971 10.4678 14.564 10.4071 14.5143 10.3132H12.5764C12.7862 9.90464 12.996 9.55681 13.2169 9.20898H18.0257C17.7496 9.56233 17.6613 10.004 17.3356 10.2635H15.8394C15.613 10.4457 15.5633 10.7494 15.3977 10.9812C15.3038 11.1137 15.221 11.2518 15.1327 11.3898V11.3953Z" fill="url(#paint5_linear_100_1149)"/>
</g>
<defs>
<linearGradient id="paint0_linear_100_1149" x1="11.9972" y1="24" x2="11.9972" y2="0" gradientUnits="userSpaceOnUse">
<stop stop-color="#FDD16B"/>
<stop offset="1" stop-color="#AB8B44"/>
</linearGradient>
<linearGradient id="paint1_linear_100_1149" x1="11.9974" y1="21.4215" x2="11.9974" y2="2.57812" gradientUnits="userSpaceOnUse">
<stop stop-color="#FDD16B"/>
<stop offset="1" stop-color="#AB8B44"/>
</linearGradient>
<linearGradient id="paint2_linear_100_1149" x1="6.28839" y1="14.7852" x2="6.28839" y2="13.6699" gradientUnits="userSpaceOnUse">
<stop stop-color="#FDD16B"/>
<stop offset="1" stop-color="#AB8B44"/>
</linearGradient>
<linearGradient id="paint3_linear_100_1149" x1="9.18694" y1="14.7853" x2="9.18694" y2="9.22006" gradientUnits="userSpaceOnUse">
<stop stop-color="#FDD16B"/>
<stop offset="1" stop-color="#AB8B44"/>
</linearGradient>
<linearGradient id="paint4_linear_100_1149" x1="13.5422" y1="14.7856" x2="13.5422" y2="11.3957" gradientUnits="userSpaceOnUse">
<stop stop-color="#FDD16B"/>
<stop offset="1" stop-color="#AB8B44"/>
</linearGradient>
<linearGradient id="paint5_linear_100_1149" x1="15.3038" y1="11.3953" x2="15.3038" y2="9.21451" gradientUnits="userSpaceOnUse">
<stop stop-color="#FDD16B"/>
<stop offset="1" stop-color="#AB8B44"/>
</linearGradient>
<clipPath id="clip0_100_1149">
<rect width="24" height="24" fill="white"/>
</clipPath>
</defs>
</svg>
