<svg width="32" height="32" viewBox="0 0 32 32" fill="none" xmlns="http://www.w3.org/2000/svg">
<path d="M21.3865 25.8589C20.8398 25.8589 20.2931 25.4854 19.9865 25.1254C19.6398 24.7521 19.0131 23.8054 18.5598 23.0987C18.2531 22.6321 18.3865 22.0187 18.8531 21.7121C19.3198 21.4187 19.9331 21.5386 20.2398 22.0053C20.8131 22.8853 21.2931 23.5787 21.4931 23.8054C21.5065 23.8187 21.5198 23.8321 21.5065 23.8321C23.5998 23.5521 25.1331 22.9255 26.3331 21.8589C26.8531 21.4055 27.0265 21.0321 26.9865 20.4987C26.7465 17.2987 26.0398 14.2589 24.8265 11.2188C24.3731 10.0988 23.5998 9.35192 22.5065 8.97859C21.6931 8.63192 20.8931 8.40522 20.1331 8.27188L19.9198 8.23218C19.7598 8.20551 19.5865 8.17876 19.4531 8.1521C19.4131 8.28543 19.3731 8.43212 19.3465 8.51212C19.2131 8.99212 18.7465 9.31219 18.2531 9.24552C16.7598 9.04552 15.2265 9.04552 13.7331 9.24552C13.2398 9.32552 12.7598 9.00546 12.6398 8.51212C12.6131 8.43212 12.5731 8.28543 12.5331 8.1521C12.3998 8.16543 12.2265 8.20551 12.0665 8.23218L11.8398 8.27188C11.0931 8.40522 10.2931 8.6319 9.53313 8.9519C8.37313 9.3519 7.5998 10.0988 7.14647 11.2188C5.93313 14.2589 5.22647 17.2854 4.98647 20.4987C4.94647 21.0321 5.1198 21.4055 5.6398 21.8589C6.85313 22.9389 8.38647 23.5654 10.4531 23.8321C10.6665 23.6054 10.9865 23.1786 11.7465 22.0053C12.0531 21.5386 12.6665 21.4054 13.1331 21.7121C13.5998 22.0187 13.7331 22.6321 13.4265 23.0987C12.7198 24.1787 12.2665 24.8321 11.9731 25.1387C11.6398 25.5254 10.9998 25.9387 10.3465 25.8321C7.85313 25.5387 5.86647 24.7253 4.3198 23.3519C3.34647 22.4986 2.90647 21.5119 2.9998 20.3386C3.26647 16.9253 4.01313 13.6987 5.30647 10.4721C5.97313 8.80542 7.1998 7.64536 8.8398 7.08536C9.66647 6.7387 10.6131 6.45858 11.5198 6.29858L11.7465 6.25887C13.1598 6.01887 13.8265 6.11211 14.2931 7.16544C15.4265 7.05878 16.5598 7.05878 17.7065 7.16544C18.1731 6.11211 18.8398 6.00554 20.2665 6.25887L20.4798 6.29858C21.3865 6.45858 22.3331 6.73872 23.2265 7.11206C24.7998 7.64539 26.0265 8.81875 26.6931 10.4721C27.9865 13.6987 28.7331 16.9253 28.9998 20.3386C29.0931 21.4986 28.6531 22.4853 27.6798 23.3519C26.1331 24.7253 24.1465 25.5387 21.5998 25.8321C21.5331 25.8321 21.4665 25.8454 21.3998 25.8454L21.3865 25.8589ZM21.3865 23.8589C21.3865 23.8589 21.3331 23.8589 21.3065 23.8589C21.3331 23.8589 21.3598 23.8589 21.3865 23.8589ZM10.6265 23.8589C10.6265 23.8589 10.6531 23.8589 10.6665 23.8589C10.6531 23.8589 10.6398 23.8589 10.6265 23.8589Z" fill="#F4F4F4"/>
<path d="M16 24.0717C13.6667 24.0717 11.3334 23.3782 9.01336 22.0049C8.53336 21.7249 8.38669 21.1115 8.66669 20.6315C8.94669 20.1515 9.56003 20.0049 10.04 20.2849C14.0533 22.6715 17.9467 22.6715 21.96 20.2849C22.44 20.0049 23.0533 20.1649 23.3333 20.6315C23.6133 21.1115 23.4667 21.7249 22.9867 22.0049C20.6667 23.3915 18.3333 24.0717 16 24.0717Z" fill="#F4F4F4"/>
<path d="M12.2128 18.9505C10.7461 18.9505 9.54614 17.6173 9.54614 15.9906C9.54614 14.3639 10.7461 13.0439 12.2128 13.0439C13.6795 13.0439 14.8795 14.3639 14.8795 15.9906C14.8795 17.6173 13.6795 18.9505 12.2128 18.9505ZM12.2128 15.0439C11.8528 15.0439 11.5461 15.4839 11.5461 15.9906C11.5461 16.5506 11.8928 16.9505 12.2128 16.9505C12.5728 16.9505 12.8795 16.4973 12.8795 15.9906C12.8795 15.4839 12.5728 15.0439 12.2128 15.0439Z" fill="#F4F4F4"/>
<path d="M19.7858 18.9505C18.3191 18.9505 17.1191 17.6173 17.1191 15.9906C17.1191 14.3639 18.3191 13.0439 19.7858 13.0439C21.2525 13.0439 22.4525 14.3639 22.4525 15.9906C22.4525 17.6173 21.2525 18.9505 19.7858 18.9505ZM19.7858 15.0439C19.4258 15.0439 19.1191 15.4839 19.1191 15.9906C19.1191 16.4973 19.4258 16.9505 19.7858 16.9505C20.1458 16.9505 20.4525 16.4973 20.4525 15.9906C20.4525 15.4839 20.1458 15.0439 19.7858 15.0439Z" fill="#F4F4F4"/>
</svg>
