<svg width="54" height="48" viewBox="0 0 54 48" fill="none" xmlns="http://www.w3.org/2000/svg">
<path d="M23.4324 9.73231L23.7192 9.83735C24.2283 9.07378 24.8181 8.34657 25.4968 7.67188L23.4364 9.73231H23.4324ZM44.2104 29.1044L44.2751 29.2256L45.6608 27.8399C45.2002 28.2964 44.7154 28.7206 44.2104 29.1044ZM23.4324 9.73231L23.7192 9.83735C24.2283 9.07378 24.8181 8.34657 25.4968 7.67188L23.4364 9.73231H23.4324Z" fill="#00CA55"/>
<path d="M48.1333 5.19155C41.2086 -1.73312 29.9409 -1.73312 23.0162 5.19155C20.2124 7.99535 18.5479 11.5021 18.0146 15.1463C17.55 18.3137 17.9379 21.5861 19.1903 24.5839C19.6468 25.6989 20.2326 26.7736 20.9315 27.7957C21.5376 28.6805 22.2325 29.5208 23.0162 30.3086C23.9212 31.2096 24.9029 32.0055 25.9533 32.6801C26.9876 33.3548 28.0905 33.9164 29.2339 34.3527C31.2297 35.1163 33.3709 35.5122 35.5727 35.5122C36.4494 35.5122 37.3181 35.4476 38.1705 35.3264C41.9318 34.7769 45.4022 33.0438 48.1333 30.3086C55.062 23.384 55.062 12.1162 48.1333 5.19155ZM39.4431 4.03609C41.7258 4.66634 43.871 5.87836 45.6608 7.66811C47.402 9.40938 48.5939 11.486 49.2443 13.6878L43.5236 14.4999L38.8573 9.25181L39.4431 4.04013V4.03609ZM40.7925 16.6936L38.5543 21.9053L31.6741 21.1417L30.9267 14.9241L36.7403 12.1405L40.7885 16.6936H40.7925ZM25.4928 7.66811C28.2764 4.8845 31.9205 3.49876 35.5727 3.49876C35.7061 3.49876 35.8434 3.49876 35.9767 3.50684L35.3667 8.91649L29.2137 11.8577L23.7152 9.82954L23.4283 9.7245L25.4887 7.66407L25.4928 7.66811ZM24.0262 26.115C21.2346 22.2689 20.6043 17.3279 22.1395 12.9929L27.4037 14.9281L28.24 21.9013L24.0262 26.115ZM35.5727 32.0095C32.1872 32.0095 28.9794 30.8379 26.418 28.6764L30.5509 24.5435L38.1099 25.3797L41.1884 30.8702C39.4391 31.6217 37.5362 32.0095 35.5727 32.0095ZM45.6608 27.8361L44.275 29.2219L44.2104 29.1006L41.4187 24.1193L44.0609 17.9541L49.814 17.138C49.9796 20.9922 48.5939 24.899 45.6608 27.8361Z" fill="#00CA55"/>
<g opacity="0.45">
<path d="M23.0163 5.19141C20.2125 7.99521 18.548 11.502 18.0147 15.1461L7.95092 25.2099L5.47437 22.7334L23.0163 5.19141Z" fill="#00CA55"/>
</g>
<g opacity="0.45">
<path d="M48.1334 30.3086L30.446 48L27.9695 45.5235L38.1706 35.3264C41.9319 34.7769 45.4024 33.0437 48.1334 30.3086Z" fill="#00CA55"/>
</g>
<g opacity="0.45">
<path d="M29.2339 34.3531L16.645 46.942L14.1685 44.4654L25.9493 32.6846C26.9835 33.3593 28.0865 33.9208 29.2298 34.3572L29.2339 34.3531Z" fill="#00CA55"/>
</g>
<g opacity="0.45">
<path d="M20.9275 27.7997L2.47656 46.2507L0 43.7742L19.1863 24.5879C19.6428 25.7029 20.2286 26.7776 20.9275 27.7997Z" fill="#00CA55"/>
</g>
</svg>
