<svg width="32" height="32" viewBox="0 0 32 32" fill="none" xmlns="http://www.w3.org/2000/svg">
<path d="M10.3762 4H21.6225C25.5533 4 28 6.77492 28 10.7018V21.2981C28 25.2251 25.5533 28 21.6212 28H10.3762C6.4454 28 4 25.2251 4 21.2981V10.7018C4 6.77492 6.45708 4 10.3762 4Z" stroke="#F4F4F4" stroke-width="2" stroke-linecap="round" stroke-linejoin="round"/>
<path d="M15.7926 11.7705C13.2136 11.7705 11.1223 13.8618 11.1223 16.4407C11.1223 19.0198 13.2136 21.111 15.7926 21.111C18.3716 21.111 20.4628 19.0198 20.4628 16.4407C20.4628 13.8618 18.3716 11.7705 15.7926 11.7705Z" stroke="#F4F4F4" stroke-width="2" stroke-linecap="round" stroke-linejoin="round"/>
<path d="M22.4881 9.81799V9.90999M22.8641 9.83801C22.8641 10.0473 22.6948 10.2167 22.4855 10.2167C22.2761 10.2167 22.1055 10.0473 22.1055 9.83801C22.1055 9.62867 22.2761 9.45801 22.4855 9.45801C22.6948 9.45801 22.8641 9.62867 22.8641 9.83801Z" stroke="#F4F4F4" stroke-width="2" stroke-linecap="round" stroke-linejoin="round"/>
</svg>
