<svg width="24" height="24" viewBox="0 0 24 24" fill="none" xmlns="http://www.w3.org/2000/svg">
<g clip-path="url(#clip0_32_1014)">
<path fill-rule="evenodd" clip-rule="evenodd" d="M11.6782 16.3154C11.9199 16.6518 11.8431 17.1204 11.5067 17.3621L9.65222 18.6944L10.9942 20.5625C11.2359 20.8989 11.1591 21.3675 10.8227 21.6092C10.4863 21.8508 10.0177 21.774 9.776 21.4376L7.99641 18.9604C7.75474 18.624 7.83154 18.1554 8.16794 17.9137L10.6315 16.1439C10.9679 15.9022 11.4366 15.979 11.6782 16.3154Z" fill="#787878"/>
<path fill-rule="evenodd" clip-rule="evenodd" d="M6.83176 4.26852C6.9864 4.39364 7.085 4.57507 7.10586 4.77289L7.42403 7.78914C7.46748 8.20107 7.16877 8.57023 6.75684 8.61368C6.34492 8.65713 5.97576 8.35842 5.93231 7.9465L5.69282 5.67613L3.40493 5.91754C2.99301 5.961 2.62384 5.6623 2.58037 5.25038C2.53691 4.83845 2.83561 4.46928 3.24753 4.42582L6.2813 4.10571C6.47912 4.08483 6.67713 4.1434 6.83176 4.26852Z" fill="#787878"/>
<path fill-rule="evenodd" clip-rule="evenodd" d="M20.9889 6.31521C21.365 6.48868 21.5293 6.93423 21.3559 7.31037L20.0783 10.0804C19.9049 10.4565 19.4594 10.6208 19.0833 10.4475L16.3288 9.17773C15.9526 9.00433 15.7882 8.55881 15.9616 8.18264C16.135 7.80647 16.5806 7.6421 16.9567 7.8155L19.0303 8.77133L19.9938 6.68218C20.1672 6.30604 20.6128 6.14174 20.9889 6.31521Z" fill="#787878"/>
<path fill-rule="evenodd" clip-rule="evenodd" d="M19.3039 12.7068C19.6989 12.8313 19.9182 13.2525 19.7937 13.6476C19.6135 14.2193 19.3651 14.7832 19.0596 15.3224C16.9209 19.093 12.413 20.6568 8.48033 19.2274C8.09104 19.0859 7.89015 18.6556 8.03165 18.2663C8.17314 17.877 8.60344 17.6761 8.99273 17.8176C12.2504 19.0017 15.9839 17.7046 17.7547 14.5826C18.0114 14.1295 18.2164 13.662 18.3631 13.1967C18.4876 12.8016 18.9088 12.5823 19.3039 12.7068Z" fill="#787878"/>
<path fill-rule="evenodd" clip-rule="evenodd" d="M6.87036 4.47919C7.13859 4.79483 7.10015 5.26814 6.78452 5.53637C4.14317 7.78098 3.42307 11.6685 5.2599 14.7516C5.52502 15.1976 5.83069 15.6079 6.16296 15.9664C6.44453 16.2702 6.42651 16.7448 6.12272 17.0263C5.81892 17.3079 5.34439 17.2899 5.06282 16.9861C4.65562 16.5467 4.28761 16.0515 3.97088 15.5187C1.75279 11.7949 2.62457 7.10302 5.81318 4.39335C6.12881 4.12512 6.60213 4.16355 6.87036 4.47919Z" fill="#787878"/>
<path fill-rule="evenodd" clip-rule="evenodd" d="M11.454 3.75C10.9336 3.75 10.4259 3.80244 9.94804 3.90466C9.54299 3.99129 9.1444 3.73317 9.05776 3.32812C8.97112 2.92307 9.22925 2.52447 9.6343 2.43783C10.2209 2.31237 10.834 2.25 11.454 2.25C15.789 2.25 19.3727 5.4002 20.0698 9.52639C20.1388 9.93481 19.8637 10.3218 19.4553 10.3908C19.0468 10.4598 18.6598 10.1847 18.5908 9.77627C18.0133 6.35792 15.043 3.75 11.454 3.75Z" fill="#787878"/>
</g>
<defs>
<clipPath id="clip0_32_1014">
<rect width="24" height="24" fill="white"/>
</clipPath>
</defs>
</svg>
