<svg width="32" height="32" viewBox="0 0 32 32" fill="none" xmlns="http://www.w3.org/2000/svg">
<path fill-rule="evenodd" clip-rule="evenodd" d="M25.3732 5.87442C26.8719 6.31838 28.0157 7.53768 28.4007 9.061C28.6233 9.75058 28.7656 10.8171 28.8572 11.9767C28.9532 13.1908 29.0003 14.6065 29 16.0118C28.9997 17.4171 28.9521 18.8269 28.856 20.0289C28.7648 21.1691 28.6235 22.2207 28.3993 22.893C28.0141 24.409 26.8771 25.623 25.3872 26.0698C25.0063 26.2055 24.4711 26.2977 23.9015 26.3685C23.2856 26.4451 22.5367 26.5071 21.7069 26.5559C20.0457 26.6535 18.0187 26.7006 15.9988 26.699C13.9788 26.6975 11.9522 26.6474 10.2919 26.549C9.46249 26.4998 8.7146 26.4381 8.09989 26.3626C7.53056 26.2929 6.99896 26.203 6.62188 26.0727C5.15563 25.6478 4.02259 24.4811 3.60468 23.0042C3.37863 22.3209 3.23532 21.2499 3.14316 20.0854C3.04716 18.8721 2.99992 17.4539 3 16.0435C3.00008 14.6331 3.04749 13.216 3.14355 12.0046C3.23497 10.8515 3.37671 9.79022 3.59989 9.10915C3.98467 7.589 5.12277 6.37388 6.61724 5.92784C6.99524 5.79634 7.52928 5.70643 8.10056 5.63676C8.71532 5.5618 9.46323 5.5006 10.2925 5.45195C11.9525 5.35455 13.9787 5.3051 15.998 5.30192C18.0173 5.29874 20.0429 5.3418 21.702 5.43112C22.5308 5.47575 23.2775 5.5324 23.8907 5.60199C24.4672 5.66742 25.0004 5.75172 25.3732 5.87442ZM8.34265 7.62206C7.75804 7.69335 7.41191 7.76679 7.26735 7.8193C7.24684 7.82675 7.22611 7.83352 7.20516 7.83962C6.39056 8.07648 5.74528 8.74871 5.53269 9.62432C5.52556 9.6537 5.51711 9.68274 5.50735 9.71134C5.36536 10.1274 5.23089 10.9822 5.13728 12.1627C5.04632 13.31 5.00008 14.673 5 16.0437C4.99992 17.4143 5.046 18.7783 5.13693 19.9275C5.23045 21.1095 5.36503 21.9682 5.50787 22.3891C5.51405 22.4073 5.51971 22.4257 5.52483 22.4442C5.75879 23.2911 6.39964 23.9329 7.19661 24.157C7.22029 24.1637 7.24371 24.1711 7.26684 24.1795C7.41208 24.2322 7.75888 24.3058 8.34332 24.3775C8.90119 24.4459 9.60379 24.5047 10.4102 24.5525C12.0214 24.6479 14.0075 24.6975 16.0003 24.699C17.9932 24.7006 19.9788 24.6541 21.5896 24.5594C22.3957 24.5119 23.0976 24.4531 23.6545 24.3838C24.2388 24.3111 24.5821 24.2361 24.7236 24.183C24.7469 24.1743 24.7707 24.1665 24.7945 24.1595C25.6081 23.9226 26.2548 23.2489 26.4673 22.3745C26.4751 22.343 26.4841 22.3119 26.4948 22.2814C26.6344 21.8813 26.7687 21.0417 26.8624 19.8694C26.9533 18.7321 26.9997 17.377 27 16.0115C27.0003 14.6461 26.9543 13.2845 26.8635 12.1343C26.77 10.9526 26.6355 10.0871 26.4908 9.65534C26.4819 9.62856 26.474 9.6014 26.4673 9.57396C26.2548 8.6995 25.6081 8.02576 24.7945 7.78894C24.7807 7.78488 24.7668 7.78052 24.7531 7.77588C24.6024 7.7248 24.2503 7.65563 23.6652 7.58923C23.1056 7.52572 22.4016 7.47168 21.5945 7.42823C19.9817 7.3414 17.9944 7.29878 16.0011 7.30191C14.0076 7.30506 12.0211 7.35396 10.4096 7.44852C9.60305 7.49584 8.90047 7.55404 8.34265 7.62206Z" fill="#F4F4F4"/>
<path fill-rule="evenodd" clip-rule="evenodd" d="M12.5261 13.2437C12.5261 11.9976 13.8707 11.2109 14.9569 11.8282L19.8545 14.613C20.9481 15.237 20.9523 16.8181 19.8523 17.4423L14.9571 20.2259C13.8741 20.8415 12.5261 20.0614 12.5261 18.8118V13.2437ZM14.5261 13.8839L18.2951 16.0271L14.5261 18.1703V13.8839Z" fill="#F4F4F4"/>
</svg>
